<svg width="561" height="265" viewBox="0 0 561 265" fill="#ffffff" stroke="#C8102E" stroke-width="2" stroke-linejoin="round" xmlns="http://www.w3.org/2000/svg">
<path d="M53.024 176.5H35.4575V161.167C34.8186 159.889 33.8603 158.751 32.2631 157.653C28.1743 154.842 24.4901 156.482 22.3606 157.653C20.6569 159.25 18.5273 162.445 19.4856 168.834C20.2671 174.044 32.1859 181.017 37.7228 184.638C52.2891 192.815 52.2786 208.621 53.024 213.732V246.634C52.707 256.537 39.6846 264.798 28.4299 264.54C13.8966 264.206 -0.00140639 254.851 0 242.249V223.722H19.4856V242.249C19.4856 247.999 33.5408 248.87 33.5408 242.482V214.371C33.5408 206.5 26.667 202.268 17 195.5C7.33296 188.732 0.319437 179.335 0 174.969V157.4C2.81104 145.389 14.6941 139.658 20.4439 139.445H33.5408C49.6404 140.723 52.2786 152.116 53.024 157.653V176.5Z" fill="#ffffff"/>
<path d="M95.6758 264.54H76.6758L86.1758 203.04L95.6758 139.445H120.176L138.676 264.54H120.176L108.176 171.04L95.6758 264.54Z" fill="#ffffff"/>
<path d="M324.176 264.54V137.5L342.176 138V264.54H324.176Z" fill="#ffffff"/>
<path d="M372.676 264.54V138H390.676L408.676 205.5V137.5H424.176V264.54H406.676L390.676 194V264.54H372.676Z" fill="#ffffff"/>
<path d="M517.676 264.54H498.676L508.176 198.5L517.676 137H542.176L560.676 264.54H542.176L530.176 166.5L517.676 264.54Z" fill="#ffffff"/>
<path d="M456.176 264.54V137L474.176 137.5V264.54H456.176Z" fill="#ffffff"/>
<path d="M275.229 137.003C282.993 137.82 287.711 141.665 290.429 146.153C293.125 150.607 293.842 155.671 293.676 159V243.528L293.673 243.557C292.859 250.681 289.922 255.296 286.339 258.379C282.771 261.448 278.589 262.973 275.323 263.978L275.251 264H241.676V137.5H242.168L275.168 137H275.198L275.229 137.003ZM258.676 154V243.5H270.737L270.797 243.485C272.34 243.1 275.176 241.143 275.176 236.5V161.478L275.174 161.455C275.084 160.467 274.687 158.941 273.788 157.498C272.884 156.048 271.46 154.664 269.319 154.021L269.249 154H258.676Z" fill="#ffffff"/>
<path d="M196.256 137.005C203.217 138.029 207.428 141.668 209.841 145.811C212.233 149.918 212.849 154.504 212.684 157.5V205.514L212.683 205.527C212.473 209.304 210.251 212.664 207.639 215.302C205.195 217.77 202.356 219.659 200.329 220.729L219.142 263.8L219.447 264.5H199.348L199.221 264.188L182.848 224H181.184V264.5H162.684V137H196.22L196.256 137.005ZM180.684 154V207H190.245L190.305 206.985C191.031 206.804 192.143 206.352 193.183 205.576C194.225 204.799 195.225 203.673 195.664 202.138L195.684 202.07V162.5C195.766 161.347 195.604 159.581 194.851 157.93C194.082 156.245 192.687 154.664 190.315 154.018L190.251 154H180.684Z" fill="#ffffff"/>
<path d="M359.448 0.00195312C365.206 0.525352 369.234 3.69342 371.915 7.40137C374.589 11.0996 375.945 15.3611 376.377 18.1719L376.383 18.209V106.984C376.383 110.736 373.94 114.451 371.011 117.444C368.067 120.452 364.531 122.836 362.146 123.92L362.047 123.965H324.676V0H359.426L359.448 0.00195312ZM355.364 19.125C352.94 17.5649 348.995 16.7275 342.842 17.7529L342.424 17.8223V104.809L342.766 104.922C344.718 105.573 347.836 106.159 350.874 105.8C353.919 105.439 356.96 104.114 358.583 100.868L358.636 100.763V24.584C358.636 22.9424 357.795 20.6891 355.364 19.125Z" fill="#ffffff"/>
<path d="M116.796 0.0302734C128.207 4.17984 131.474 14.7212 132.329 19.4258L132.337 19.4697V69.0039L132.328 69.0527C131.793 71.7307 129.595 74.8807 127.075 77.6865C124.672 80.3626 121.903 82.8011 119.793 84.3281L138.626 123.247L138.974 123.965H119.843L119.715 123.658L120.176 123.465L119.715 123.657L119.714 123.656C119.714 123.656 119.713 123.654 119.713 123.653C119.712 123.65 119.709 123.645 119.706 123.639C119.701 123.626 119.692 123.606 119.682 123.58C119.66 123.529 119.629 123.452 119.587 123.353C119.503 123.153 119.38 122.858 119.221 122.48C118.903 121.724 118.444 120.633 117.878 119.293C116.746 116.612 115.189 112.936 113.485 108.954C110.087 101.01 106.111 91.8608 103.772 86.9619C103.073 86.0142 102.085 85.4949 101.335 85.4561C100.964 85.437 100.688 85.5353 100.508 85.7041C100.331 85.8705 100.176 86.1713 100.176 86.7021V123.965H83.1758V0H116.713L116.796 0.0302734ZM103.915 17.6484C103.302 17.6585 102.794 17.6834 102.438 17.7061C102.261 17.7174 102.121 17.7283 102.024 17.7363C101.976 17.7403 101.939 17.7438 101.913 17.7461C101.901 17.7472 101.891 17.7474 101.885 17.748C101.881 17.7484 101.878 17.7488 101.876 17.749H101.873V17.75L101.423 17.7949V69.4014L101.867 69.4512C103.812 69.6673 106.853 69.6682 109.682 68.9639C112.494 68.2634 115.227 66.8289 116.331 64.0693L116.366 63.9814L116.367 63.8867L115.867 63.8838L116.367 63.8857V63.8584C116.367 63.8395 116.368 63.8106 116.368 63.7734C116.369 63.699 116.369 63.5883 116.37 63.4443C116.372 63.156 116.375 62.733 116.378 62.1943C116.384 61.1166 116.393 59.5756 116.402 57.7227C116.422 54.0166 116.445 49.0618 116.461 44.0684C116.476 39.0751 116.484 34.0416 116.473 30.1787C116.467 28.2477 116.456 26.6071 116.438 25.4102C116.43 24.8124 116.42 24.3228 116.408 23.9619C116.397 23.626 116.383 23.348 116.357 23.2197C116.004 21.453 114.853 20.2375 113.399 19.416C111.956 18.6001 110.183 18.1519 108.49 17.9102C106.792 17.6675 105.139 17.6284 103.915 17.6484Z" fill="#ffffff"/>
<path d="M39.9023 0.0302734C51.3577 4.19595 53.328 15.6548 54.1689 20.7002L54.1758 20.7412V32.1924C54.1757 33.3006 53.8324 34.5645 53.2852 35.8604C52.7351 37.1627 51.9652 38.5299 51.0811 39.8535C49.5017 42.2177 47.53 44.4791 45.7334 46.0176C48.0764 47.2555 49.9095 49.6824 51.2637 52.207C52.7677 55.011 53.7333 58.0345 54.1641 59.9727L54.1758 60.0264V109.562L54.1689 109.603C53.5198 113.497 51.8903 116.772 49.2637 119.234C46.6387 121.695 43.0505 123.315 38.5342 123.96L38.499 123.965H3.67578V0H39.8193L39.9023 0.0302734ZM34.5967 56.8467C32.7096 55.0341 29.019 53.8863 21.8887 54.3955L21.4238 54.4287V104.867L21.834 104.942C24.1846 105.37 27.7575 105.697 30.7666 105.099C32.2721 104.799 33.684 104.258 34.7256 103.339C35.7846 102.404 36.4286 101.104 36.4287 99.3789V62.5C36.4287 61.0497 36.4967 58.6723 34.5967 56.8467ZM21.4238 17.748V36.4951H32.126C32.2985 36.495 32.4395 36.4284 32.5352 36.3662C32.6336 36.3021 32.7195 36.2197 32.793 36.1377C32.9399 35.9736 33.085 35.7544 33.2236 35.5039C33.5034 34.9983 33.8 34.2919 34.0742 33.4541C34.6233 31.7761 35.1013 29.5094 35.1611 27.1348C35.2155 24.9747 34.8753 22.704 34.3652 20.9648C34.1109 20.0977 33.8075 19.3377 33.4746 18.7842C33.3087 18.5085 33.1221 18.263 32.915 18.0811C32.71 17.901 32.4427 17.7482 32.126 17.748H21.4238Z" fill="#ffffff"/>
<path d="M243.676 0V124H261.432V59.4167L276.651 124H295.676V0H277.92V64.5833L262.7 0H243.676Z" fill="#ffffff"/>
<path d="M175.676 124H155.676L165.176 62.5L174.676 1H200.176L218.676 124H199.176L188.176 30.5L175.676 124Z" fill="#ffffff"/>
</svg>
