<svg width="629" height="196" viewBox="0 0 629 196" fill="none" xmlns="http://www.w3.org/2000/svg">
<path d="M90.4961 58.5H59.5V34.5C58.5 32.5 57 30.7188 54.5 29C48.1 24.6 39.8333 27.1667 36.5 29C33.8333 31.5 30.5 36.5 32 46.5C33.2232 54.655 50.8333 67.8333 59.5 73.5C82.3 86.3 88.8294 105.5 89.9961 113.5V165C68.9922 212.5 0.496094 193.5 0.5 158.5V129.5H31V158.5C31 167.5 59.5 168.5 59.5 158.5V114.5C59.5 109 43 94.6 25 85C7 75.4 1.5 59.3333 1 52.5V25C5.4 6.2 24.5 0.833333 33.5 0.5H56.5C81.7 2.5 89.3294 20.3333 90.4961 29V58.5Z" fill="#F93448"/>
<path d="M117.996 190.5H98.9961L117.996 67.5H142.496L160.996 190.5H142.496L130.496 97L117.996 190.5Z" fill="#F93448"/>
<path d="M351.996 190.5V67L369.996 67.5V190.5H351.996Z" fill="#F93448"/>
<path d="M401.496 190.5V67.5H419.496L437.496 135V67H454.496V190.5H435.496L419.496 123.5V190.5H401.496Z" fill="#F93448"/>
<path d="M507.496 195H474.996L507.496 6.5H551.496L584.996 195H551.496L529.496 55L507.496 195Z" fill="#F93448"/>
<path d="M593.996 195V6.5H627.996V195H593.996Z" fill="#F93448"/>
<path d="M90.4961 58.5H59.5V34.5C58.5 32.5 57 30.7188 54.5 29C48.1 24.6 39.8333 27.1667 36.5 29C33.8333 31.5 30.5 36.5 32 46.5C33.2232 54.655 50.8333 67.8333 59.5 73.5C82.3 86.3 88.8294 105.5 89.9961 113.5V165C68.9922 212.5 0.496094 193.5 0.5 158.5V129.5H31V158.5C31 167.5 59.5 168.5 59.5 158.5V114.5C59.5 109 43 94.6 25 85C7 75.4 1.5 59.3333 1 52.5V25C5.4 6.2 24.5 0.833333 33.5 0.5H56.5C81.7 2.5 89.3294 20.3333 90.4961 29V58.5Z" stroke="black"/>
<path d="M117.996 190.5H98.9961L117.996 67.5H142.496L160.996 190.5H142.496L130.496 97L117.996 190.5Z" stroke="black"/>
<path d="M351.996 190.5V67L369.996 67.5V190.5H351.996Z" stroke="black"/>
<path d="M401.496 190.5V67.5H419.496L437.496 135V67H454.496V190.5H435.496L419.496 123.5V190.5H401.496Z" stroke="black"/>
<path d="M507.496 195H474.996L507.496 6.5H551.496L584.996 195H551.496L529.496 55L507.496 195Z" stroke="black"/>
<path d="M593.996 195V6.5H627.996V195H593.996Z" stroke="black"/>
<path d="M303.053 66.5029C310.817 67.3203 315.535 71.1652 318.253 75.6533C320.95 80.1067 321.666 85.1712 321.5 88.5V170.528L321.497 170.557C320.683 177.681 317.747 182.296 314.163 185.379C310.595 188.448 306.413 189.973 303.147 190.978L303.075 191H269.5V67H269.992L302.992 66.5H303.022L303.053 66.5029ZM286.5 83.5V173H298.562L298.621 172.985C300.164 172.6 303 170.643 303 166V90.9775L302.998 90.9551C302.908 89.9672 302.511 88.4405 301.612 86.998C300.709 85.5476 299.284 84.1637 297.144 83.5215L297.073 83.5H286.5Z" fill="#F93448"/>
<path d="M220.072 66.5049C227.034 67.5286 231.245 71.1684 233.657 75.3105C236.05 79.4183 236.666 84.004 236.5 87V135.014L236.499 135.027C236.289 138.804 234.067 142.164 231.455 144.802C229.016 147.265 226.183 149.152 224.157 150.224L242.953 190.288L243.287 191H223.174L223.042 190.701L206.674 153.5H205V191H186.5V66.5H220.036L220.072 66.5049ZM204.5 83.5V136.5H214.062L214.121 136.485C214.848 136.304 215.959 135.852 216.999 135.076C218.041 134.299 219.042 133.173 219.48 131.638L219.5 131.57V92C219.582 90.8472 219.421 89.0808 218.667 87.4297C217.898 85.7454 216.504 84.1645 214.132 83.5176L214.067 83.5H204.5Z" fill="#F93448"/>
</svg>
