<?xml version="1.0" standalone="no"?>
<svg version="1.0" xmlns="http://www.w3.org/2000/svg"
 width="498pt" height="980pt" viewBox="0 0 498 980"
 preserveAspectRatio="xMidYMid meet">
<g transform="translate(0,980) scale(0.1,-0.1)" fill="#C8102E" stroke="none">
<path d="M3464 9284 c20 -19 20 -25 2 -18 -8 3 -17 1 -21 -5 -9 -16 -19 -14
-45 9 -12 11 -27 17 -33 13 -6 -3 -1 -10 11 -14 12 -5 22 -13 22 -19 0 -5 9
-10 19 -10 11 0 21 -5 23 -11 2 -7 13 -3 27 8 17 14 22 25 17 41 -4 12 -14 22
-22 22 -13 0 -13 -2 0 -16z"/>
<path d="M3377 9213 c-14 -4 -16 -8 -6 -19 16 -20 51 -18 47 3 -3 18 -14 23
-41 16z"/>
<path d="M3576 9139 c-3 -8 -4 -21 -3 -29 1 -8 -1 -15 -6 -15 -4 0 -16 -15
-27 -32 -11 -18 -25 -33 -32 -33 -9 0 -8 -3 2 -10 9 -6 10 -10 3 -10 -6 0 -15
5 -18 10 -11 18 -24 1 -23 -30 1 -39 20 -54 55 -46 16 4 36 8 45 9 12 1 14 6
8 17 -5 9 -4 22 2 31 8 12 9 11 5 -3 -6 -19 22 -48 41 -41 14 5 17 33 3 33 -5
0 -12 -6 -14 -12 -4 -10 -6 -10 -6 -1 -1 6 4 15 9 18 6 3 10 24 10 46 0 36 -7
44 -33 40 -4 -1 -3 8 4 20 9 17 8 25 -5 37 -13 13 -16 13 -20 1z m24 -19 c0
-5 -2 -10 -4 -10 -3 0 -8 5 -11 10 -3 6 -1 10 4 10 6 0 11 -4 11 -10z m-50
-84 c0 -3 -4 -8 -10 -11 -5 -3 -10 -1 -10 4 0 6 5 11 10 11 6 0 10 -2 10 -4z
m0 -70 c0 -2 -7 -7 -16 -10 -8 -3 -12 -2 -9 4 6 10 25 14 25 6z"/>
<path d="M3030 9092 c-14 -9 -29 -23 -34 -31 -5 -8 -11 -10 -15 -3 -9 15 -46
19 -43 5 1 -7 -3 -12 -10 -10 -7 1 -13 -7 -15 -18 -6 -45 -20 -101 -31 -122
-14 -26 -15 -36 -3 -29 5 4 7 -4 4 -15 -4 -14 0 -25 10 -31 9 -5 22 -19 28
-31 7 -12 8 -19 4 -15 -3 3 -19 -8 -35 -25 -22 -25 -35 -31 -69 -31 -22 -1
-40 -5 -39 -11 4 -21 -25 -57 -57 -71 -36 -15 -125 -19 -125 -6 0 4 -4 13 -9
21 -7 11 -13 10 -35 -4 -14 -9 -24 -21 -21 -25 3 -4 -1 -8 -8 -7 -34 1 -45 -6
-66 -43 -12 -22 -26 -40 -31 -40 -5 0 -12 -9 -15 -20 -4 -11 -24 -41 -46 -66
-22 -25 -36 -50 -33 -56 4 -6 3 -8 -3 -5 -6 4 -29 -16 -52 -43 -23 -28 -49
-50 -58 -50 -9 0 -34 -8 -54 -17 -35 -16 -39 -23 -45 -67 -4 -30 -20 -67 -40
-97 -19 -29 -31 -57 -28 -67 4 -12 3 -13 -3 -4 -7 9 -19 0 -44 -35 -19 -27
-32 -52 -31 -58 2 -5 0 -7 -4 -3 -4 4 -27 -8 -50 -27 -54 -45 -95 -59 -144
-51 -23 4 -41 2 -45 -5 -4 -6 -26 -9 -50 -8 -35 2 -49 -3 -81 -29 -21 -18 -44
-32 -51 -32 -7 0 -30 -12 -52 -27 -32 -23 -39 -33 -34 -53 4 -20 2 -22 -6 -10
-9 13 -11 13 -11 -1 0 -9 -9 -24 -20 -34 -11 -10 -20 -23 -20 -28 0 -6 12 0
26 14 26 24 26 24 15 2 -11 -21 -23 -27 -43 -24 -18 2 -109 -62 -98 -69 6 -4
-1 -7 -17 -7 -15 0 -74 -10 -131 -22 -136 -28 -178 -27 -224 4 -41 28 -53 31
-42 13 4 -8 3 -10 -2 -5 -5 5 -9 14 -9 20 0 8 -32 13 -97 15 -54 1 -98 6 -98
10 0 4 -21 8 -47 10 -27 2 -56 11 -71 22 -13 11 -29 17 -35 13 -6 -4 -7 -1 -2
7 6 10 4 12 -8 7 -11 -4 -14 -2 -11 7 3 7 -13 29 -35 49 -22 20 -47 47 -56 61
-10 14 -21 24 -25 21 -5 -3 -12 0 -16 6 -4 8 -3 9 4 5 17 -10 15 6 -3 31 -8
12 -11 24 -6 27 5 4 3 25 -4 51 -9 30 -10 45 -3 45 5 0 8 7 4 15 -3 8 0 15 7
15 7 1 -2 7 -19 14 -18 8 -35 19 -38 25 -4 5 -14 8 -24 5 -14 -5 -15 -4 -2 5
16 11 8 27 -9 16 -18 -11 -52 -85 -45 -97 4 -7 3 -8 -4 -4 -21 13 -13 -22 8
-37 13 -9 18 -20 14 -30 -4 -12 1 -20 17 -27 47 -19 60 -37 64 -87 4 -40 -2
-62 -26 -114 -36 -74 -52 -122 -38 -114 5 3 6 -1 3 -9 -3 -9 -10 -14 -14 -11
-4 3 -14 -10 -21 -28 -15 -38 -49 -85 -49 -68 0 7 -5 9 -10 6 -7 -4 -6 -14 2
-28 12 -23 19 -114 7 -95 -4 6 -14 -2 -23 -20 -9 -17 -26 -38 -38 -46 -12 -9
-18 -16 -13 -16 6 0 4 -4 -3 -8 -9 -6 -6 -12 13 -22 13 -7 27 -21 31 -32 3
-10 9 -18 13 -18 13 0 51 -37 44 -43 -11 -11 19 -37 43 -37 16 0 28 -9 38 -29
14 -26 14 -29 -1 -27 -22 2 -51 -93 -31 -105 8 -5 9 -9 2 -9 -7 0 -14 -8 -17
-19 -3 -12 -23 -25 -56 -36 -28 -9 -53 -20 -56 -25 -7 -12 14 -153 24 -163 5
-5 12 -3 16 4 6 8 4 10 -6 5 -8 -4 -4 1 8 10 13 9 23 23 23 31 0 8 5 11 10 8
6 -3 12 1 15 9 3 9 8 24 12 34 3 9 6 20 5 24 -1 3 5 11 12 17 19 16 62 -2 72
-31 11 -31 6 -47 -22 -81 -38 -45 -32 -53 36 -54 56 -1 60 1 60 22 0 17 7 24
30 29 17 3 30 10 30 16 0 6 -4 9 -8 6 -5 -3 -9 1 -9 9 0 10 4 12 12 5 6 -5 27
-7 47 -4 21 4 38 2 42 -4 4 -6 14 -8 23 -5 11 4 14 3 9 -6 -4 -6 -1 -22 7 -34
20 -31 27 -86 10 -80 -11 4 -10 0 1 -23 8 -16 26 -58 41 -94 19 -49 35 -71 61
-87 20 -13 39 -23 44 -23 10 0 16 -18 25 -78 4 -23 11 -40 16 -37 5 4 6 0 4
-8 -3 -7 1 -30 10 -51 29 -69 35 -126 20 -187 -8 -31 -16 -72 -17 -91 -2 -24
-7 -34 -15 -31 -7 3 -13 -2 -13 -10 0 -18 16 -31 23 -20 2 5 2 1 -1 -7 -16
-54 -16 -55 -1 -43 10 8 20 9 29 3 8 -6 30 -10 47 -10 26 0 36 -6 48 -31 13
-24 20 -29 38 -23 29 9 44 12 34 6 -4 -2 -3 -10 4 -18 6 -7 9 -25 5 -38 -6
-25 14 -52 29 -38 5 4 5 2 2 -4 -4 -7 0 -17 8 -24 17 -14 19 -40 6 -84 -37
-123 -45 -159 -47 -216 -1 -36 -4 -95 -6 -132 -2 -36 0 -64 4 -62 3 2 4 -4 2
-13 -4 -17 4 -32 48 -94 25 -36 27 -174 3 -196 -4 -4 -5 -1 0 7 4 8 -5 3 -19
-13 -16 -16 -24 -32 -20 -40 4 -6 4 -9 -1 -5 -4 4 -21 0 -37 -8 -17 -9 -32
-13 -35 -10 -3 3 -22 -4 -42 -15 -36 -19 -36 -19 -52 1 -14 16 -18 17 -23 5
-3 -8 0 -15 6 -15 6 0 9 -3 6 -6 -4 -3 -15 -1 -26 5 -21 11 -42 -2 -42 -27 0
-11 8 -13 35 -8 29 6 36 3 50 -17 17 -26 12 -99 -8 -124 -6 -9 -5 -19 4 -30
12 -16 12 -17 -2 -6 -12 10 -18 10 -27 1 -16 -16 -15 -35 1 -41 9 -3 11 -36
10 -131 -2 -108 0 -127 12 -122 8 3 27 -6 43 -19 16 -14 33 -21 37 -17 5 4 5
2 2 -5 -4 -6 -4 -18 -1 -26 4 -11 15 -5 42 26 20 23 42 51 48 61 6 11 17 22
25 24 8 2 5 -3 -6 -12 -16 -12 -17 -15 -4 -16 8 0 19 4 25 9 5 5 31 6 59 1 28
-4 53 -6 58 -3 4 2 6 1 5 -4 -5 -16 35 -64 48 -59 8 3 14 1 14 -4 0 -6 -4 -10
-9 -10 -5 0 -11 -14 -13 -31 -5 -35 13 -50 55 -42 16 3 27 1 27 -6 0 -6 -6
-11 -12 -11 -9 0 -8 -4 2 -10 11 -8 8 -9 -13 -4 -27 6 -39 -9 -14 -19 10 -4
10 -6 0 -6 -8 -1 -13 -15 -13 -35 0 -82 -44 -245 -71 -261 -5 -4 -8 -13 -5
-21 3 -8 2 -13 -2 -13 -26 4 -31 -2 -22 -27 8 -19 6 -29 -5 -40 -8 -9 -18 -27
-21 -42 -9 -44 -13 -52 -23 -52 -5 0 -11 9 -14 21 -4 13 -10 18 -18 13 -7 -4
-10 -3 -6 3 11 18 -52 128 -71 125 -15 -2 -15 -1 -2 7 12 8 12 13 2 23 -15 15
-31 2 -37 -32 -6 -33 4 -44 21 -23 12 14 12 11 -1 -14 -18 -37 -20 -77 -4 -67
7 4 7 -1 -1 -16 -9 -16 -9 -25 -1 -33 16 -16 13 -67 -5 -102 -14 -28 -14 -31
6 -47 19 -16 21 -22 11 -49 -17 -49 -14 -139 4 -139 22 0 38 -38 31 -79 -4
-20 -8 -49 -10 -66 -1 -16 -7 -39 -13 -50 -20 -40 -41 -115 -29 -108 6 4 -2
-8 -17 -26 -15 -19 -26 -40 -23 -48 3 -8 2 -12 -3 -8 -13 7 -54 -62 -45 -76 4
-7 3 -9 -3 -6 -6 4 -26 -8 -44 -26 -52 -51 -48 -128 6 -138 49 -10 38 -117
-17 -172 -16 -17 -28 -37 -25 -46 4 -18 -17 -44 -27 -34 -3 4 -6 1 -6 -5 0 -6
7 -15 15 -20 9 -4 21 -30 28 -58 11 -45 14 -49 45 -52 18 -2 36 -10 39 -18 3
-7 10 -11 17 -8 6 3 3 -1 -6 -9 -22 -17 -23 -27 -3 -27 8 0 15 -5 15 -11 0 -5
3 -8 7 -6 5 3 9 -31 9 -75 1 -44 -2 -75 -6 -68 -5 8 -10 3 -14 -14 -4 -17 -13
-26 -26 -26 -11 0 -25 -10 -31 -22 -7 -13 -34 -43 -60 -68 -46 -44 -48 -48
-39 -79 8 -30 42 -66 62 -66 3 0 10 -4 14 -8 8 -8 9 -12 12 -75 l2 -33 33 22
c21 16 27 17 18 6 -18 -22 -3 -22 23 0 19 16 19 16 7 1 -7 -9 -9 -23 -5 -29 5
-8 3 -10 -7 -4 -8 5 -6 -1 4 -13 22 -24 40 -92 25 -92 -5 0 -8 -15 -6 -32 3
-31 5 -33 41 -31 36 2 39 0 53 -35 8 -20 21 -50 29 -65 13 -24 13 -32 1 -55
-9 -18 -10 -34 -5 -47 8 -17 9 -16 5 5 -4 22 -3 23 8 8 6 -9 19 -16 27 -16 57
4 82 -4 108 -33 21 -22 34 -29 48 -25 28 9 69 -40 65 -77 -2 -16 2 -36 9 -45
11 -14 11 -15 0 -5 -19 16 -41 5 -41 -20 0 -26 39 -109 49 -103 3 3 6 -13 6
-35 -1 -44 0 -45 21 -24 21 20 42 9 65 -37 23 -44 19 -93 -12 -144 -35 -57
-19 -81 36 -58 17 6 49 10 72 8 33 -3 43 0 43 12 0 8 -7 17 -15 20 -23 9 -7
25 19 18 16 -4 28 0 37 13 8 10 27 23 44 28 17 6 36 23 43 38 11 22 17 26 27
17 7 -6 15 -7 17 -3 3 4 3 3 2 -4 -3 -13 14 -30 35 -35 8 -2 23 -11 33 -21 10
-9 28 -17 41 -17 18 0 23 -5 22 -27 0 -25 4 -28 35 -31 65 -4 79 -6 75 -11 -3
-2 1 -11 9 -20 8 -9 14 -20 13 -26 -3 -18 54 -17 74 1 10 9 17 20 14 23 -2 4
1 13 7 21 8 12 9 12 4 -3 -6 -18 9 -24 19 -7 3 5 20 16 38 25 30 14 85 87 80
105 -1 5 5 14 14 22 12 9 15 9 9 1 -13 -23 10 -13 36 15 14 15 24 35 23 45 -2
9 1 15 6 11 5 -3 6 -11 3 -17 -7 -12 55 40 67 57 4 5 5 16 2 25 -4 12 -3 13 4
3 11 -14 24 -3 36 31 4 9 15 17 26 17 28 0 53 41 56 93 2 23 15 62 29 87 14
25 26 51 26 58 0 20 -36 63 -45 54 -5 -4 -5 -1 -1 6 12 20 -4 35 -22 20 -15
-12 -16 -11 -3 5 11 14 12 20 3 26 -16 10 -19 167 -4 218 7 23 24 55 37 71 26
31 33 48 15 37 -6 -4 -7 1 -3 11 4 11 8 13 11 6 2 -6 26 13 53 42 28 30 71 67
97 81 25 14 44 23 41 20 -4 -3 10 -22 30 -43 20 -20 43 -47 51 -60 18 -27 54
-36 70 -17 8 10 7 15 -8 19 -10 4 -19 13 -19 21 0 8 2 13 5 11 6 -7 67 66 64
77 -1 4 2 6 7 3 5 -3 24 0 42 8 71 29 77 29 104 0 21 -23 35 -27 96 -32 47 -3
72 -9 76 -18 3 -8 15 -14 28 -14 12 0 28 -7 35 -15 7 -8 16 -13 20 -10 4 2 15
-13 25 -35 13 -30 24 -40 41 -40 13 0 37 -15 55 -35 19 -19 39 -35 46 -35 9 0
10 -7 3 -25 -10 -25 1 -42 20 -30 13 8 90 -44 90 -62 0 -12 4 -12 28 0 54 29
108 35 144 18 30 -14 49 -51 27 -51 -18 0 -9 -37 14 -56 12 -10 17 -13 11 -6
-15 17 -7 56 17 81 10 11 19 24 19 28 -1 4 -10 -3 -20 -16 -20 -24 -27 -18
-10 9 5 8 27 15 51 17 51 3 65 20 73 87 3 29 12 53 21 58 22 13 18 27 -11 40
-23 11 -25 16 -20 51 4 21 9 64 13 95 11 112 78 248 125 258 15 4 25 10 23 14
-3 5 1 10 7 13 7 2 -4 12 -24 22 -30 15 -38 25 -43 55 -8 48 -2 200 7 194 5
-3 8 1 8 8 0 8 16 53 35 101 19 47 32 93 29 101 -3 7 -1 17 5 21 7 3 8 0 5 -9
-3 -9 -2 -16 4 -16 11 0 23 90 21 157 -1 26 -7 44 -16 47 -11 5 -14 22 -11 80
2 41 6 72 11 69 4 -2 7 5 7 16 0 11 6 24 14 28 25 15 37 169 21 265 -20 111
-19 134 6 168 17 22 20 37 16 66 -5 31 -2 41 16 58 22 20 22 25 15 146 -5 69
-5 150 -2 180 8 76 33 172 50 191 18 20 18 28 -2 50 -9 10 -18 43 -21 77 -6
77 15 129 57 145 21 8 30 18 30 34 0 20 -4 22 -24 17 -20 -5 -27 0 -40 25 -22
41 -20 117 4 170 11 24 20 53 20 65 0 35 25 105 45 128 10 13 19 37 19 54 1
18 4 30 9 27 4 -2 7 2 7 11 0 8 6 16 13 19 25 8 -15 56 -70 84 -38 19 -58 36
-67 58 -8 17 -28 47 -45 67 -17 20 -31 45 -31 56 0 28 -11 53 -20 47 -5 -3 -6
3 -3 14 6 25 -13 36 -35 20 -14 -11 -15 -11 -4 1 13 15 17 34 4 26 -4 -2 -8 3
-9 12 -1 9 -4 59 -7 111 -3 51 -11 100 -17 107 -7 8 -7 14 -2 14 10 0 28 74
24 94 -1 5 6 17 15 27 9 10 13 23 8 30 -4 7 -3 10 3 6 5 -3 20 7 31 23 24 31
29 56 10 44 -7 -4 -8 -3 -4 5 4 6 12 9 17 6 15 -10 21 22 9 47 -11 22 -10 22
4 4 9 -11 17 -18 19 -15 28 35 47 71 42 78 -3 5 0 13 6 17 8 5 9 3 4 -7 -5 -8
19 13 53 46 34 32 59 61 57 64 -3 2 -15 -4 -27 -15 l-23 -19 19 22 c10 12 26
22 35 21 49 -4 73 2 67 18 -3 8 -2 12 4 9 15 -9 40 61 42 121 1 29 5 48 9 42
4 -6 9 -2 14 11 3 11 11 21 16 21 9 0 59 103 59 124 0 6 6 22 13 36 19 37 39
115 35 136 -1 10 -23 30 -48 44 -42 24 -45 30 -47 69 -1 39 -7 49 -57 96 -46
44 -56 60 -56 87 0 19 -5 39 -12 46 -12 12 -12 108 0 127 22 35 4 135 -25 135
-8 0 -25 11 -38 25 -21 20 -25 34 -25 79 0 30 -5 58 -10 61 -6 4 -4 12 5 21
19 19 11 34 -17 34 -17 0 -18 -2 -8 -15 9 -10 9 -15 1 -15 -6 0 -12 6 -12 13
-1 6 -2 19 -3 27 0 8 -9 15 -18 15 -9 0 -20 4 -25 9 -4 5 -3 6 5 2 18 -11 15
-1 -13 40 -14 20 -25 48 -25 61 0 34 19 66 35 59 8 -3 17 -1 20 4 4 6 1 10 -5
10 -6 0 -8 5 -4 11 3 6 1 14 -5 18 -18 11 3 57 28 64 12 3 21 1 21 -4 0 -18
49 -9 60 11 7 14 7 20 0 20 -5 0 -10 -4 -10 -9 0 -6 -12 -6 -32 0 -24 6 -34 6
-37 -3 -2 -6 -9 4 -15 23 -11 34 -42 48 -40 19 1 -9 -7 -16 -17 -16 -10 0 -16
3 -13 7 2 4 -3 9 -11 13 -9 3 -15 19 -15 40 0 19 -5 38 -12 42 -6 4 -8 3 -4
-4 4 -7 -5 -10 -24 -10 -17 1 -33 5 -36 10 -3 5 0 7 7 6 6 -2 14 3 16 10 3 7
1 12 -4 11 -4 -1 -18 2 -30 6 -25 8 -32 35 -10 35 8 0 28 18 46 41 32 39 33
41 10 37 -16 -2 -23 -9 -21 -20 3 -20 -14 -33 -24 -17 -4 7 -3 9 4 5 7 -4 10
1 9 14 -1 23 -47 29 -47 7 0 -7 -12 -24 -26 -36 -22 -19 -30 -21 -50 -12 -14
6 -29 22 -36 36 -6 14 -19 25 -29 25 -21 0 -125 -26 -139 -35 -10 -6 -12 -3
-14 42 -1 21 5 29 24 33 14 4 24 11 23 16 -1 5 9 9 22 9 13 0 21 -3 19 -6 -12
-21 70 -43 99 -28 16 9 16 12 2 25 -13 13 -13 19 0 42 8 15 26 38 40 51 l26
24 -22 23 c-27 29 -19 51 34 90 34 25 46 29 58 20 9 -6 14 -17 12 -24 -3 -8 1
-10 13 -5 11 4 15 3 11 -4 -4 -6 6 -15 22 -21 24 -8 32 -7 45 7 14 15 14 20 2
36 -12 16 -16 17 -29 6 -18 -14 -49 -8 -72 16 -14 13 -18 13 -43 -2 -15 -10
-22 -12 -15 -5 6 7 10 18 9 24 -2 6 -1 8 1 4 6 -11 23 -10 23 0 0 5 -11 14
-25 20 -14 6 -25 8 -25 4 0 -4 -14 -23 -30 -42 -16 -19 -30 -29 -30 -22 0 7
-13 12 -30 12 -33 0 -37 12 -15 50 21 36 20 64 -2 55 -10 -4 -31 -10 -46 -13
-23 -4 -28 -9 -23 -25 7 -30 -11 -57 -39 -57 -31 0 -39 14 -18 31 25 21 45 78
38 108 -4 19 -1 32 10 41 9 8 13 20 9 32 -6 19 21 88 34 88 4 0 14 -5 22 -10
13 -8 12 -10 -5 -10 -15 0 -16 -3 -7 -12 22 -22 56 24 56 78 1 40 -2 47 -21
50 -12 2 -23 -3 -27 -12 -8 -22 -26 -7 -26 21 0 19 -4 23 -17 18 -10 -3 -15
-3 -11 1 3 4 14 9 25 10 26 4 12 22 -14 18 -13 -1 -23 2 -23 8 0 5 7 10 14 10
12 0 13 6 5 30 -6 17 -17 30 -25 30 -7 0 -11 -6 -8 -14 3 -8 0 -17 -5 -21 -6
-3 -9 -9 -7 -13 2 -4 -9 -7 -24 -7 -15 0 -26 3 -24 6 2 4 -6 9 -17 12 -14 4
-19 1 -16 -7 3 -8 -4 -11 -24 -8 -17 3 -29 0 -29 -7 0 -6 5 -11 10 -11 16 0
12 -37 -5 -43 -8 -4 -23 -24 -35 -47 -11 -22 -25 -38 -30 -35 -6 4 -10 29 -10
56 0 28 -6 60 -12 72 -7 12 -13 31 -13 42 0 15 -8 21 -33 25 -38 6 -44 21 -13
35 26 12 29 47 4 44 -38 -3 -62 2 -77 16 -8 8 -21 12 -29 9 -17 -6 -37 23 -30
44 3 6 -1 12 -9 12 -11 0 -11 2 0 9 9 5 0 8 -25 7 -30 -1 -38 -5 -37 -18 1
-10 -2 -15 -7 -12 -5 3 -9 1 -9 -4 0 -6 7 -12 15 -16 8 -3 15 -10 15 -16 0 -6
-14 -4 -36 5 -20 8 -46 13 -59 11 -12 -2 -28 0 -35 4 -8 5 -22 4 -33 -2 -15
-8 -18 -7 -12 2 5 8 3 11 -6 8 -8 -3 -13 -11 -11 -17 1 -7 -2 -10 -7 -7 -10 7
-4 38 16 76 17 33 16 61 -3 88 -10 15 -22 21 -32 17 -9 -3 -13 -2 -8 2 4 4 -9
13 -31 19 -30 9 -38 16 -36 33 3 26 -21 27 -57 3z m7 -57 c-16 -17 -17 -14
-10 14 4 15 8 19 13 10 5 -6 3 -18 -3 -24z m38 25 c3 -5 1 -10 -4 -10 -6 0
-11 5 -11 10 0 6 2 10 4 10 3 0 8 -4 11 -10z m-73 -42 c-7 -7 -12 -8 -12 -2 0
14 12 26 19 19 2 -3 -1 -11 -7 -17z m408 -159 c0 -5 5 -7 12 -3 7 4 8 3 4 -5
-6 -9 -11 -9 -22 0 -17 14 -18 19 -4 19 6 0 10 -5 10 -11z m131 -67 c-7 -2
-18 1 -23 6 -8 8 -4 9 13 5 13 -4 18 -8 10 -11z m-611 -82 c0 -5 -5 -10 -11
-10 -5 0 -7 5 -4 10 3 6 8 10 11 10 2 0 4 -4 4 -10z m-396 -101 c5 -4 -2 -6
-17 -6 -19 2 -23 5 -15 15 6 7 14 9 17 5 3 -4 10 -11 15 -14z m1067 -12 c-10
-9 -11 -8 -5 6 3 10 9 15 12 12 3 -3 0 -11 -7 -18z m129 19 c0 -2 -7 -9 -15
-16 -13 -11 -14 -10 -9 4 5 14 24 23 24 12z m238 -81 c-3 -3 -9 2 -12 12 -6
14 -5 15 5 6 7 -7 10 -15 7 -18z m-1528 -15 c0 -5 -2 -10 -4 -10 -3 0 -8 5
-11 10 -3 6 -1 10 4 10 6 0 11 -4 11 -10z m-80 -134 c0 -2 -8 -10 -17 -17 -16
-13 -17 -12 -4 4 13 16 21 21 21 13z m1567 -168 c-3 -8 -6 -5 -6 6 -1 11 2 17
5 13 3 -3 4 -12 1 -19z m124 -21 c-10 -9 -11 -8 -5 6 3 10 9 15 12 12 3 -3 0
-11 -7 -18z m-3771 -201 c0 -3 -4 -8 -10 -11 -5 -3 -10 -1 -10 4 0 6 5 11 10
11 6 0 10 -2 10 -4z m54 -41 c-4 -8 -8 -15 -10 -15 -2 0 -4 7 -4 15 0 8 4 15
10 15 5 0 7 -7 4 -15z m-21 -19 c4 -10 1 -13 -8 -9 -8 3 -12 9 -9 14 7 12 11
11 17 -5z m-19 -41 c-4 -8 -11 -12 -16 -9 -6 4 -5 10 3 15 19 12 19 11 13 -6z
m79 -108 c-3 -5 1 -14 8 -19 12 -8 11 -9 -1 -5 -8 2 -16 17 -17 33 -2 20 0 25
7 14 5 -8 6 -18 3 -23z m3500 26 c-7 -2 -21 -2 -30 0 -10 3 -4 5 12 5 17 0 24
-2 18 -5z m162 -3 c3 -5 1 -10 -4 -10 -6 0 -11 5 -11 10 0 6 2 10 4 10 3 0 8
-4 11 -10z m-3585 -84 c-4 -4 -16 -4 -26 2 -16 9 -14 10 8 9 15 -1 23 -6 18
-11z m-90 -46 c6 -11 8 -20 6 -20 -3 0 -10 9 -16 20 -6 11 -8 20 -6 20 3 0 10
-9 16 -20z m1117 -22 c-3 -8 -6 -5 -6 6 -1 11 2 17 5 13 3 -3 4 -12 1 -19z
m-1140 -10 c-3 -8 -6 -5 -6 6 -1 11 2 17 5 13 3 -3 4 -12 1 -19z m840 -144
c-3 -3 -12 -4 -19 -1 -8 3 -5 6 6 6 11 1 17 -2 13 -5z m3103 -144 c0 -5 -2
-10 -4 -10 -3 0 -8 5 -11 10 -3 6 -1 10 4 10 6 0 11 -4 11 -10z m-4110 -105
c-7 -9 -15 -13 -19 -10 -3 3 1 10 9 15 21 14 24 12 10 -5z m30 -502 c-11 -17
-11 -17 -6 0 3 10 6 24 7 30 0 9 2 9 5 0 3 -7 0 -20 -6 -30z m167 -15 c-3 -8
-6 -5 -6 6 -1 11 2 17 5 13 3 -3 4 -12 1 -19z m4196 -138 c3 -11 1 -18 -4 -14
-5 3 -9 12 -9 20 0 20 7 17 13 -6z m74 -122 c-3 -8 -6 -5 -6 6 -1 11 2 17 5
13 3 -3 4 -12 1 -19z m-3942 -48 c3 -5 1 -10 -4 -10 -6 0 -11 5 -11 10 0 6 2
10 4 10 3 0 8 -4 11 -10z m3872 -212 c-3 -8 -6 -5 -6 6 -1 11 2 17 5 13 3 -3
4 -12 1 -19z m-3740 -30 c-3 -8 -6 -5 -6 6 -1 11 2 17 5 13 3 -3 4 -12 1 -19z
m3731 -13 c-3 -3 -9 2 -12 12 -6 14 -5 15 5 6 7 -7 10 -15 7 -18z m-75 -150
c-3 -9 -8 -14 -10 -11 -3 3 -2 9 2 15 9 16 15 13 8 -4z m-159 -153 c3 -5 -1
-9 -9 -9 -8 0 -12 4 -9 9 3 4 7 8 9 8 2 0 6 -4 9 -8z m-3226 -257 c-3 -3 -9 2
-12 12 -6 14 -5 15 5 6 7 -7 10 -15 7 -18z m-16 -137 c-8 -8 -9 -4 -5 13 4 13
8 18 11 10 2 -7 -1 -18 -6 -23z m3177 -433 c12 -20 16 -37 10 -40 -5 -4 -8 -3
-7 2 1 4 -6 23 -15 41 -23 43 -14 41 12 -3z m86 -113 c-3 -3 -11 0 -18 7 -9
10 -8 11 6 5 10 -3 15 -9 12 -12z m-5 -192 c0 -5 -2 -10 -4 -10 -3 0 -8 5 -11
10 -3 6 -1 10 4 10 6 0 11 -4 11 -10z m-5 -38 c-3 -3 -11 0 -18 7 -9 10 -8 11
6 5 10 -3 15 -9 12 -12z m-3418 2 c-3 -3 -12 -4 -19 -1 -8 3 -5 6 6 6 11 1 17
-2 13 -5z m-26 -81 c-12 -20 -14 -14 -5 12 4 9 9 14 11 11 3 -2 0 -13 -6 -23z
m3469 -287 c0 -2 -9 -6 -20 -9 -11 -3 -18 -1 -14 4 5 9 34 13 34 5z m-3143
-78 c-3 -8 -6 -5 -6 6 -1 11 2 17 5 13 3 -3 4 -12 1 -19z m113 -168 c0 -5 -5
-10 -11 -10 -5 0 -7 5 -4 10 3 6 8 10 11 10 2 0 4 -4 4 -10z m-290 -510 c6
-11 8 -20 6 -20 -3 0 -10 9 -16 20 -6 11 -8 20 -6 20 3 0 10 -9 16 -20z m125
-19 c-6 -5 -25 10 -25 20 0 5 6 4 14 -3 8 -7 12 -15 11 -17z m3085 -16 c-7 -9
-15 -13 -19 -10 -3 3 1 10 9 15 21 14 24 12 10 -5z m-73 -227 c-3 -8 -6 -5 -6
6 -1 11 2 17 5 13 3 -3 4 -12 1 -19z m-3166 -365 c-12 -20 -14 -14 -5 12 4 9
9 14 11 11 3 -2 0 -13 -6 -23z m-167 -268 c-4 -8 -8 -15 -10 -15 -2 0 -4 7 -4
15 0 8 4 15 10 15 5 0 7 -7 4 -15z m3296 -159 c0 -3 -4 -8 -10 -11 -5 -3 -10
-1 -10 4 0 6 5 11 10 11 6 0 10 -2 10 -4z m-3290 -100 c0 -3 -4 -8 -10 -11 -5
-3 -10 -1 -10 4 0 6 5 11 10 11 6 0 10 -2 10 -4z m-10 -64 c0 -1 -9 2 -20 8
-11 6 -20 15 -20 20 0 6 9 2 20 -7 11 -10 20 -19 20 -21z m3210 -342 c-6 -11
-12 -20 -14 -20 -2 0 -2 9 1 20 3 11 9 20 15 20 5 0 4 -9 -2 -20z m-1166 -256
c3 -8 2 -12 -4 -9 -6 3 -10 10 -10 16 0 14 7 11 14 -7z m-43 -42 c9 2 13 -4
12 -17 -1 -11 4 -23 10 -28 8 -6 7 -7 -3 -4 -8 2 -14 13 -13 24 2 14 -3 20
-14 19 -9 0 -18 6 -20 14 -4 12 -2 12 5 2 5 -7 15 -12 23 -10z m-228 -17 c-3
-9 -8 -14 -10 -11 -3 3 -2 9 2 15 9 16 15 13 8 -4z m1304 -7 c-3 -8 -6 -5 -6
6 -1 11 2 17 5 13 3 -3 4 -12 1 -19z m-1327 -19 c0 -6 -4 -7 -10 -4 -5 3 -10
11 -10 16 0 6 5 7 10 4 6 -3 10 -11 10 -16z m-79 -96 c-12 -20 -14 -14 -5 12
4 9 9 14 11 11 3 -2 0 -13 -6 -23z m-1546 -121 c-3 -3 -11 0 -18 7 -9 10 -8
11 6 5 10 -3 15 -9 12 -12z m260 -262 c3 -5 1 -10 -4 -10 -6 0 -11 5 -11 10 0
6 2 10 4 10 3 0 8 -4 11 -10z m90 -200 c-3 -5 -12 -10 -18 -10 -7 0 -6 4 3 10
19 12 23 12 15 0z m1174 -13 c0 -9 -2 -8 -6 1 -2 6 -10 9 -15 6 -7 -4 -8 -2
-4 5 9 13 26 5 25 -12z m-59 -31 c0 -3 -4 -8 -10 -11 -5 -3 -10 -1 -10 4 0 6
5 11 10 11 6 0 10 -2 10 -4z m-1016 -81 c11 -8 15 -15 10 -15 -6 0 -14 4 -19
9 -6 5 -19 11 -30 14 l-20 5 20 1 c11 0 29 -6 39 -14z m866 -85 c0 -5 -5 -10
-11 -10 -5 0 -7 5 -4 10 3 6 8 10 11 10 2 0 4 -4 4 -10z m-92 -50 c-7 -10 -14
-17 -17 -15 -4 4 18 35 25 35 2 0 -1 -9 -8 -20z m-558 -10 c8 -5 11 -10 5 -10
-5 0 -17 5 -25 10 -8 5 -10 10 -5 10 6 0 17 -5 25 -10z m545 -60 c-10 -11 -22
-20 -26 -20 -5 0 2 10 14 23 27 28 38 25 12 -3z m-29 5 c-11 -8 -25 -15 -30
-15 -6 1 0 7 14 15 32 19 40 18 16 0z m-631 -5 c-3 -5 -12 -10 -18 -10 -7 0
-6 4 3 10 19 12 23 12 15 0z m454 -24 c-3 -3 -11 5 -18 17 -13 21 -12 21 5 5
10 -10 16 -20 13 -22z m-504 -6 c-3 -5 -14 -10 -23 -9 -14 0 -13 2 3 9 27 11
27 11 20 0z m575 -60 c8 -5 11 -10 5 -10 -5 0 -17 5 -25 10 -8 5 -10 10 -5 10
6 0 17 -5 25 -10z"/>
<path d="M3362 9055 c-3 -39 18 -56 43 -35 23 19 18 49 -11 60 -14 6 -26 10
-28 10 -1 0 -3 -16 -4 -35z m48 -10 c0 -2 -9 -9 -20 -15 -12 -6 -20 -7 -20 -1
0 5 8 12 18 14 9 3 18 5 20 6 1 0 2 -1 2 -4z"/>
<path d="M2837 9063 c-12 -12 -7 -31 9 -37 12 -5 15 -2 10 10 -5 14 -4 15 9 4
12 -10 15 -10 15 3 0 8 -7 18 -16 21 -19 7 -19 7 -27 -1z"/>
<path d="M3698 9033 c0 -16 -1 -33 -1 -40 0 -6 -5 -9 -11 -7 -7 3 -12 -7 -11
-28 0 -18 5 -33 12 -33 6 0 14 -3 17 -7 3 -5 3 -6 -1 -3 -3 3 -12 -3 -18 -12
-10 -14 -10 -22 2 -40 9 -13 18 -21 21 -19 3 3 -1 12 -8 21 -7 9 -10 18 -6 22
3 3 6 1 6 -5 0 -7 5 -12 11 -12 6 0 9 7 6 14 -4 10 -1 13 8 10 9 -4 16 4 21
23 4 15 11 33 16 40 5 7 7 17 3 24 -6 8 -10 7 -16 -2 -5 -9 -7 2 -4 26 4 38 4
39 -7 13 -7 -16 -15 -28 -20 -28 -10 0 -6 23 6 31 11 9 0 39 -14 39 -5 0 -11
-12 -12 -27z"/>
<path d="M3640 9020 c0 -5 5 -10 10 -10 6 0 10 5 10 10 0 6 -4 10 -10 10 -5 0
-10 -4 -10 -10z"/>
<path d="M3225 8950 c-8 -12 -15 -70 -9 -70 3 0 14 9 25 19 17 16 19 23 10 40
-13 24 -17 25 -26 11z m15 -25 c0 -8 -4 -15 -10 -15 -5 0 -7 7 -4 15 4 8 8 15
10 15 2 0 4 -7 4 -15z"/>
<path d="M3547 8912 c-21 -23 -21 -38 -1 -46 39 -15 58 2 47 43 -7 26 -25 27
-46 3z m33 -6 c0 -3 -4 -8 -10 -11 -5 -3 -10 -1 -10 4 0 6 5 11 10 11 6 0 10
-2 10 -4z m5 -26 c-3 -5 -12 -10 -18 -10 -7 0 -6 4 3 10 19 12 23 12 15 0z"/>
<path d="M3650 8893 c0 -11 -5 -24 -12 -31 -6 -6 -8 -15 -4 -19 4 -4 13 1 19
12 15 27 17 44 6 51 -5 3 -9 -3 -9 -13z"/>
<path d="M3728 8843 c6 -2 18 -2 25 0 6 3 1 5 -13 5 -14 0 -19 -2 -12 -5z"/>
<path d="M597 8604 c-4 -4 -7 -16 -7 -26 0 -15 -8 -18 -45 -18 -52 0 -68 -19
-41 -49 16 -18 23 -62 9 -60 -31 5 -45 -6 -67 -53 -21 -44 -30 -53 -53 -55
-41 -2 -77 -63 -37 -63 13 0 15 -6 10 -27 -4 -16 -7 -33 -8 -40 -1 -6 -7 -9
-14 -6 -18 7 -29 -18 -13 -28 10 -6 11 -9 2 -9 -7 0 -13 -7 -13 -15 0 -12 10
-15 43 -13 23 1 48 0 56 -3 8 -2 21 8 29 22 14 24 14 28 -6 57 -12 16 -22 38
-22 49 0 10 -4 14 -8 8 -9 -12 -32 -18 -32 -7 1 10 27 43 37 45 4 1 7 5 6 10
-2 4 0 6 5 6 23 -4 30 3 26 26 -3 17 0 25 9 25 19 0 49 35 40 45 -5 5 -1 5 7
-1 21 -14 101 -37 107 -30 4 3 11 -2 18 -11 10 -14 13 -12 24 18 10 29 9 36
-4 45 -11 8 -13 14 -5 19 6 4 8 15 5 25 -3 10 0 22 6 26 9 5 10 2 6 -9 -4 -11
-2 -14 8 -11 8 3 11 12 9 19 -7 16 -48 28 -52 15 -2 -6 -8 -10 -14 -10 -7 0
-6 5 1 14 23 27 1 93 -22 70z"/>
<path d="M4080 8460 c-8 -5 -11 -12 -7 -16 4 -4 13 -2 19 4 15 15 7 24 -12 12z"/>
<path d="M3995 8420 c-3 -5 -2 -10 4 -10 5 0 13 5 16 10 3 6 2 10 -4 10 -5 0
-13 -4 -16 -10z"/>
<path d="M326 8111 c-4 -6 -3 -11 3 -11 6 0 8 -7 5 -15 -7 -17 11 -21 22 -4 3
6 0 18 -9 26 -10 10 -17 11 -21 4z"/>
<path d="M4421 7896 c-7 -8 -41 -33 -77 -56 -35 -23 -64 -44 -64 -45 0 -1 12
-2 27 -2 31 0 86 36 80 52 -3 5 9 10 25 11 38 2 50 14 34 37 -12 15 -15 15
-25 3z"/>
<path d="M4381 7726 c-10 -12 -7 -18 19 -31 30 -16 56 -12 45 6 -4 5 0 9 7 9
8 1 6 6 -6 15 -23 18 -36 19 -36 4 0 -5 5 -7 12 -3 7 5 8 3 3 -6 -6 -10 -11
-10 -20 4 -11 14 -14 14 -24 2z"/>
<path d="M182 6630 c0 -14 2 -19 5 -12 2 6 2 18 0 25 -3 6 -5 1 -5 -13z"/>
<path d="M570 4560 c-13 -8 -12 -10 3 -10 9 0 17 5 17 10 0 12 -1 12 -20 0z"/>
<path d="M926 4105 c-9 -26 -7 -32 5 -12 6 10 9 21 6 23 -2 3 -7 -2 -11 -11z"/>
<path d="M570 1655 c-1 -5 -2 -12 -2 -15 0 -3 -17 -4 -39 -2 -38 4 -74 -12
-64 -28 2 -4 -6 -6 -18 -6 -29 3 -74 -20 -87 -43 -17 -33 -12 -51 13 -51 42 0
71 -56 56 -109 -3 -9 13 -23 41 -37 55 -28 59 -28 86 -6 18 14 23 31 27 89 2
42 0 70 -5 67 -5 -3 -6 6 -2 22 5 18 3 25 -4 20 -8 -5 -8 2 -1 23 6 16 9 42 6
58 -2 15 -5 24 -7 18z m-5 -273 c-3 -3 -11 0 -18 7 -9 10 -8 11 6 5 10 -3 15
-9 12 -12z"/>
<path d="M856 1555 c4 -8 8 -15 10 -15 2 0 4 7 4 15 0 8 -4 15 -10 15 -5 0 -7
-7 -4 -15z"/>
<path d="M735 1387 c-6 -7 -9 -21 -7 -31 3 -14 0 -17 -12 -13 -19 8 -20 3 -3
-23 10 -17 9 -22 -2 -29 -12 -8 -12 -16 0 -55 7 -25 18 -46 23 -46 6 0 6 -4
-1 -11 -11 -11 -6 -49 6 -49 4 0 7 -10 7 -22 -1 -13 4 -22 10 -21 7 1 9 -8 6
-22 -3 -18 0 -25 12 -25 11 0 16 -9 16 -26 0 -16 4 -23 12 -18 6 4 8 3 5 -3
-8 -13 32 -133 45 -133 5 0 6 -5 2 -11 -9 -16 40 -3 72 18 17 11 23 21 18 35
-3 10 0 26 7 34 7 8 13 45 14 82 1 50 7 77 24 104 23 39 25 85 3 80 -8 -1 -11
2 -8 7 4 5 3 29 0 51 -5 32 -14 46 -37 61 -17 10 -35 15 -40 12 -6 -3 -7 -1
-4 5 4 5 4 17 1 26 -5 12 -11 13 -24 6 -10 -6 -40 -11 -67 -13 -26 -1 -51 -6
-55 -12 -5 -5 -5 5 -2 23 7 33 -3 41 -21 19z m162 -33 c-3 -3 -12 -4 -19 -1
-8 3 -5 6 6 6 11 1 17 -2 13 -5z m-142 -74 c3 -5 1 -10 -4 -10 -6 0 -11 5 -11
10 0 6 2 10 4 10 3 0 8 -4 11 -10z m-17 -35 c-3 -3 -9 2 -12 12 -6 14 -5 15 5
6 7 -7 10 -15 7 -18z m235 -20 c-3 -9 -8 -14 -10 -11 -3 3 -2 9 2 15 9 16 15
13 8 -4z m-122 -328 c-10 -9 -11 -8 -5 6 3 10 9 15 12 12 3 -3 0 -11 -7 -18z"/>
<path d="M3885 1310 c-3 -5 -1 -10 4 -10 6 0 11 5 11 10 0 6 -2 10 -4 10 -3 0
-8 -4 -11 -10z"/>
<path d="M1486 584 c-8 -22 -8 -26 4 -19 7 4 7 -3 0 -20 -14 -36 -13 -37 10
-25 23 12 25 37 6 63 -12 16 -14 16 -20 1z"/>
</g>
</svg>
