<?xml version="1.0" encoding="utf-8"?>
<svg fill="#B040FF" height="512" width="512" viewBox="0 0 512 512" xmlns="http://www.w3.org/2000/svg">
<g><g>
  <path d="M482.433,78.112l-48.525-48.525c-5.854-5.854-13.638-9.078-21.916-9.078c-8.279,0-16.062,3.224-21.915,9.078l-31.289,31.289c-12.271,12.272-18.61,28.253-19.054,44.368c-11.729-30.879-25.451-57.945-38.169-79.866C292.489,9.734,275.636,0.01,257.557,0c-18.069,0-34.931,9.711-44.003,25.346c-30.771,53.028-67.45,136.091-67.45,230.67c0,27.141,3.031,53.326,8.066,78.133l-14.334,14.334c-9.853-5.741-21.083-8.814-32.79-8.814c-17.443,0-33.843,6.793-46.178,19.127l-31.287,31.289c-5.855,5.853-9.079,13.637-9.079,21.916c0,8.279,3.224,16.061,9.079,21.915l48.523,48.526c5.854,5.853,13.637,9.077,21.915,9.077c8.279,0,16.061-3.224,21.916-9.078l31.289-31.29c14.706-14.706,20.9-34.735,18.619-53.942c12.447,34.889,27.688,65.309,41.711,89.476c9.061,15.615,25.92,25.314,43.997,25.314c0.003,0,0.025,0,0.028,0c18.065-0.01,34.919-9.722,43.986-25.349c30.762-53.021,67.431-136.074,67.431-230.636c0-28.075-3.25-55.124-8.601-80.685l11.781-11.781c9.853,5.741,21.083,8.814,32.789,8.814c17.443,0,33.843-6.793,46.178-19.127l31.288-31.289C494.518,109.86,494.518,90.199,482.433,78.112z M129.522,427.448l-29.502,29.502l-44.949-44.95l29.501-29.502c6.004-6.003,13.985-9.309,22.475-9.309c8.49,0,16.472,3.306,22.475,9.309C141.914,394.891,141.915,415.056,129.522,427.448z M179.626,256.015c0-87.122,34.218-164.377,62.922-213.845c3.096-5.333,8.846-8.647,15.019-8.647c6.15,0.003,11.899,3.329,15.003,8.679c18.137,31.263,38.467,73.634,50.98,122.57l-7.417,7.417c-6.771-25.489-30.038-44.329-57.627-44.329h-1.91c-32.877,0-59.625,26.748-59.625,59.625V291.35l-13.805,13.805C180.908,289.224,179.626,272.805,179.626,256.015z M230.492,305.233l54.117-54.117v73.434c0,14.394-11.71,26.103-26.103,26.103h-1.91c-14.393,0-26.103-11.709-26.103-26.103v-19.316H230.492z M230.492,257.827v-70.345c0-14.394,11.71-26.103,26.103-26.103h1.91c14.393,0,26.103,11.709,26.103,26.103v16.228L230.492,257.827z M272.57,469.83c-3.094,5.331-8.693,8.645-14.858,8.649l-0.161,0.001c-6.17,0-11.919-3.302-15.003-8.617c-18.449-31.794-39.161-75.077-51.617-125.069l7.437-7.437c5.878,26.741,29.745,46.818,58.226,46.818h1.91c32.877,0,59.625-26.748,59.625-59.625V217.595l13.405-13.405c2.503,16.768,3.94,34.087,3.94,51.824C335.475,343.122,301.267,420.366,272.57,469.83z M427.441,129.531c-6.004,6.003-13.985,9.309-22.475,9.309s-16.471-3.306-22.474-9.309c-12.393-12.393-12.393-32.558,0-44.951l29.501-29.501l44.95,44.95L427.441,129.531z"/>
</g></g>
</svg>
